<svg
  xmlns="http://www.w3.org/2000/svg"
  viewBox="0 0 324.99 324.99"
  fill="none"
>
  <defs>
    <linearGradient id="palette-logo-gradient" x1="0%" y1="0%" x2="100%" y2="100%">
      <stop offset="0%" stop-color="rgba(129, 97, 62, 0.7)" />
      <stop offset="100%" stop-color="rgba(203, 176, 147, 0.1)" />
    </linearGradient>
  </defs>

  <path
    d="M 307.6 129.885 c -11.453 -11.447 -23.783 -16.778 -38.805 -16.778 c -6.189 0 -12.056 0.858 -17.729 1.688 c -5.094 0.745 -9.905 1.449 -14.453 1.45 c -8.27 0 -14.197 -2.397 -19.82 -8.017 c -10.107 -10.101 -8.545 -20.758 -6.569 -34.25 c 2.357 -16.096 5.291 -36.127 -15.101 -56.508 C 183.578 5.932 167.848 0.081 148.372 0.081 c -37.296 0 -78.367 21.546 -99.662 42.829 C 17.398 74.205 0.1 115.758 0 159.917 c -0.1 44.168 17.018 85.656 48.199 116.82 c 31.077 31.061 72.452 48.168 116.504 48.171 c 0.005 0 0.007 0 0.013 0 c 44.315 0 86.02 -17.289 117.428 -48.681 c 17.236 -17.226 32.142 -44.229 38.9 -70.471 C 329.291 173.738 324.517 146.793 307.6 129.885 Z"
    fill="url(#palette-logo-gradient)"
    stroke="rgba(255, 255, 255, 0.4)"
    stroke-width="6"
    stroke-linejoin="round"
  />

  <path
    d="M142.002,43.531c-1.109,0-2.233,0.065-3.342,0.192c-15.859,1.824-27.33,16.199-25.571,32.042c1.613,14.631,13.93,25.665,28.647,25.665c1.105,0,2.226-0.065,3.332-0.191c15.851-1.823,27.326-16.191,25.581-32.031C169.032,54.57,156.716,43.531,142.002,43.531z"
    fill="#ef4444"
  />
  <path
    d="M102.997,113.64c-1.72-7.512-6.261-13.898-12.784-17.984c-4.597-2.881-9.889-4.404-15.304-4.404c-10.051,0-19.254,5.079-24.618,13.587c-4.14,6.566-5.472,14.34-3.75,21.888c1.715,7.52,6.261,13.92,12.799,18.018c4.596,2.88,9.888,4.402,15.303,4.402c10.051,0,19.255-5.078,24.624-13.593C103.401,128.975,104.726,121.193,102.997,113.64z"
    fill="#f59e0b"
  />
  <path
    d="M70.131,173.25c-3.275,0-6.516,0.557-9.63,1.654c-15.055,5.301-23.05,21.849-17.821,36.892c4.032,11.579,14.984,19.358,27.254,19.358c3.276,0,6.517-0.556,9.637-1.652c15.065-5.301,23.053-21.854,17.806-36.896C93.346,181.029,82.397,173.25,70.131,173.25z"
    fill="#10b981"
  />
  <path
    d="M140.817,229.415c-3.071-1.066-6.266-1.606-9.496-1.606c-12.307,0-23.328,7.804-27.431,19.429c-2.566,7.317-2.131,15.185,1.229,22.151c3.349,6.943,9.204,12.163,16.486,14.696c3.075,1.071,6.274,1.614,9.51,1.614c12.3,0,23.314-7.811,27.409-19.439c2.574-7.31,2.143-15.175-1.216-22.145C153.958,237.165,148.103,231.945,140.817,229.415z"
    fill="#3b82f6"
  />
  <path
    d="M212.332,213.811c-5.466,0-10.81,1.55-15.448,4.479c-13.525,8.521-17.652,26.427-9.193,39.927c5.315,8.445,14.463,13.488,24.469,13.488c5.458,0,10.796-1.545,15.434-4.464c13.541-8.507,17.663-26.419,9.19-39.926C231.486,218.86,222.345,213.811,212.332,213.811z"
    fill="#8b5cf6"
  />
  <path
    d="M255.384,141.998c-1.06-0.117-2.134-0.176-3.194-0.176c-14.772,0-27.174,11.068-28.846,25.747c-0.876,7.698,1.297,15.266,6.118,21.311c4.812,6.03,11.686,9.821,19.369,10.676c1.053,0.114,2.12,0.173,3.175,0.173c14.754,0,27.164-11.067,28.869-25.748c0.886-7.688-1.277-15.247-6.091-21.288C269.97,146.651,263.082,142.853,255.384,141.998z"
    fill="#ec4899"
  />
</svg>
